<svg width="483" height="165" viewBox="0 0 483 165" fill="none" xmlns="http://www.w3.org/2000/svg">
<path d="M425.585 9.83605C432.169 3.27827 440.093 0 449.354 0C458.615 0 466.538 3.27951 473.123 9.83605C479.707 16.3938 483 24.3272 483 33.6361C483 42.945 479.707 50.8957 473.123 57.4882C466.538 64.0832 458.614 67.3775 449.354 67.3775C440.094 67.3775 432.169 64.0819 425.585 57.4882C419 50.8957 415.708 42.945 415.708 33.6361C415.708 24.3272 419 16.3951 425.585 9.83605ZM449.302 56.9052C453.528 56.9052 457.419 55.8658 460.975 53.7845C464.531 51.7056 467.348 48.8838 469.426 45.3227C471.503 41.7629 472.543 37.8657 472.543 33.6348C472.543 27.2891 470.273 21.8415 465.73 17.2931C461.187 12.7447 455.729 10.4711 449.355 10.4711C442.982 10.4711 437.524 12.7447 432.981 17.2931C428.438 21.8415 426.167 27.3077 426.167 33.6882C426.167 40.0686 428.438 45.5348 432.981 50.0832C437.524 54.6316 442.964 56.9052 449.302 56.9052ZM453.74 29.2985C452.33 28.1003 450.834 27.4839 449.25 27.4479C447.666 27.4132 446.256 27.9949 445.025 29.1931C443.792 30.3925 443.176 31.8735 443.176 33.6361C443.176 35.117 443.704 36.5286 444.761 37.8669C445.817 39.2078 447.331 39.8763 449.303 39.8763C450.993 39.8763 452.472 39.2772 453.741 38.0778C454.444 37.3733 455.289 37.0198 456.277 37.0198H460.29C461.769 37.0198 462.861 37.6548 463.566 38.9237C464.269 40.1926 464.235 41.4627 463.46 42.7316C461.911 45.0585 459.904 46.9091 457.439 48.2847C454.972 49.6603 452.262 50.3474 449.305 50.3474C444.586 50.3474 440.59 48.6556 437.314 45.2706C434.039 41.8857 432.508 37.7975 432.718 33.001C432.788 30.1097 433.58 27.4479 435.096 25.0156C436.609 22.5832 438.616 20.6445 441.117 19.1983C443.616 17.7533 446.31 16.9954 449.199 16.9247C452.158 16.9247 454.904 17.6305 457.44 19.0395C459.976 20.451 462.017 22.3897 463.567 24.8568C464.271 26.0562 464.271 27.273 463.567 28.5059C462.862 29.7413 461.771 30.3566 460.292 30.3566H456.488C455.361 30.3566 454.446 30.0055 453.742 29.2985H453.74Z" fill="#54BE92"/>
<path d="M53.5534 164.996H38.8104C14.8718 164.996 0 149.21 0 123.798V40.1727H19.7762V123.798C19.7762 145.195 33.605 145.195 38.8104 145.195H53.5534V164.996Z" fill="#101328"/>
<path d="M73.7025 61.2253C80.354 61.2253 85.7461 55.8265 85.7461 49.1666C85.7461 42.5067 80.354 37.1078 73.7025 37.1078C67.051 37.1078 61.6589 42.5067 61.6589 49.1666C61.6589 55.8265 67.051 61.2253 73.7025 61.2253Z" fill="#101328"/>
<path d="M102.625 164.996C78.7035 164.996 64.5589 150.083 63.8181 124.081C63.5319 114.037 63.8032 78.2344 63.8144 76.715L83.5894 76.8675C83.5869 77.2359 83.3094 113.829 83.5856 123.516C84.1307 142.62 93.5159 145.196 102.625 145.196V164.998V164.996Z" fill="#101328"/>
<path d="M145.526 164.996C140.75 164.996 133.632 163.524 126.836 156.512C111.197 140.378 104.203 100.997 106.046 39.4645L125.814 40.0574C123.533 116.197 135.695 137.217 141.029 142.722C142.619 144.363 144.132 145.194 145.527 145.194C148.024 145.194 149.935 139.039 150.641 136.394C152.983 127.602 153.842 114.772 154.672 102.364C156.397 76.5549 158.029 52.1757 171.931 41.6624C175.932 38.6372 182.796 35.4792 192.777 37.6089C207.655 40.7855 212.623 56.3371 217.006 70.0567C218.394 74.4042 219.716 78.3969 221.122 81.9815C225.231 70.7836 231.025 60.011 238.604 51.9487C248.058 41.8906 259.603 36.7109 271.995 36.9726C290.162 37.3546 303.724 52.1459 304.245 72.143C304.817 94.1519 288.248 119.099 250.517 121.865C243.911 122.349 238.188 121.811 233.212 120.487C233.167 122.214 233.202 123.775 233.313 125.132C233.818 131.308 235.953 139.434 243.26 143.073C253.273 148.063 270.599 143.562 290.786 130.726L301.387 147.441C267.347 169.087 246.198 166.653 234.451 160.801C222.308 154.752 214.904 142.659 213.604 126.749C213.204 121.858 213.453 115.737 214.376 109.011C205.627 99.4383 201.454 86.3674 198.171 76.0911C195.562 67.9233 192.315 57.7585 188.655 56.9771C185.413 56.285 184.319 57.1123 183.852 57.4658C177.157 62.5277 175.567 86.3203 174.405 103.692C173.511 117.044 172.589 130.852 169.749 141.504C164.574 160.924 153.722 165 145.529 165L145.526 164.996ZM236.082 100.529C239.59 101.938 243.822 102.501 249.072 102.118C275.719 100.165 284.797 85.0278 284.476 72.659C284.28 65.1325 280.161 56.9486 271.58 56.7687C264.748 56.6261 258.674 59.4876 253.005 65.5195C244.591 74.4711 239.104 88.058 236.083 100.53L236.082 100.529Z" fill="#101328"/>
<path d="M363.851 164.94C335.558 164.94 312.541 136.338 312.541 101.18C312.541 65.1908 334.753 36.9999 363.108 36.9999C391.811 36.9999 415.162 65.7899 415.162 101.18C415.162 136.338 392.144 164.94 363.852 164.94H363.851ZM363.106 56.6906C346.068 56.6906 332.206 76.648 332.206 101.18C332.206 125.481 346.401 145.25 363.85 145.25C381.298 145.25 395.494 125.48 395.494 101.18C395.494 77.0647 380.661 56.6906 363.105 56.6906H363.106Z" fill="#101328"/>
</svg>
